<?xml version="1.0" encoding="UTF-8" standalone="no"?>
<!-- Created with Inkscape (http://www.inkscape.org/) -->

<svg
   xmlns:dc="http://purl.org/dc/elements/1.1/"
   xmlns:cc="http://creativecommons.org/ns#"
   xmlns:rdf="http://www.w3.org/1999/02/22-rdf-syntax-ns#"
   xmlns:svg="http://www.w3.org/2000/svg"
   xmlns="http://www.w3.org/2000/svg"
   xmlns:sodipodi="http://sodipodi.sourceforge.net/DTD/sodipodi-0.dtd"
   xmlns:inkscape="http://www.inkscape.org/namespaces/inkscape"
   width="71.198753mm"
   height="25.988539mm"
   viewBox="0 0 252.27905 92.085373"
   id="svg4353"
   version="1.1"
   inkscape:version="0.91 r13725"
   sodipodi:docname="bone.svg">
  <defs
     id="defs4355">
    <clipPath
       clipPathUnits="userSpaceOnUse"
       id="clipPath4337">
      <path
         d="M 0,378 522,378 522,0 0,0 0,378 Z"
         id="path4339"
         inkscape:connector-curvature="0" />
    </clipPath>
  </defs>
  <sodipodi:namedview
     id="base"
     pagecolor="#ffffff"
     bordercolor="#666666"
     borderopacity="1.0"
     inkscape:pageopacity="0.0"
     inkscape:pageshadow="2"
     inkscape:zoom="2.5804759"
     inkscape:cx="153.4687"
     inkscape:cy="45.725326"
     inkscape:document-units="px"
     inkscape:current-layer="layer1"
     showgrid="false"
     inkscape:window-width="1440"
     inkscape:window-height="851"
     inkscape:window-x="0"
     inkscape:window-y="1"
     inkscape:window-maximized="1"
     fit-margin-top="0"
     fit-margin-left="0"
     fit-margin-right="0"
     fit-margin-bottom="0">
    <sodipodi:guide
       position="0.20744012,-962.5036"
       orientation="0,744.09449"
       id="guide4412" />
    <sodipodi:guide
       position="744.30192,-962.5036"
       orientation="-1052.3622,0"
       id="guide4414" />
    <sodipodi:guide
       position="744.30192,89.858582"
       orientation="0,-744.09449"
       id="guide4416" />
    <sodipodi:guide
       position="0.20744012,89.858582"
       orientation="1052.3622,0"
       id="guide4418" />
  </sodipodi:namedview>
  <metadata
     id="metadata4358">
    <rdf:RDF>
      <cc:Work
         rdf:about="">
        <dc:format>image/svg+xml</dc:format>
        <dc:type
           rdf:resource="http://purl.org/dc/dcmitype/StillImage" />
        <dc:title></dc:title>
      </cc:Work>
    </rdf:RDF>
  </metadata>
  <g
     inkscape:label="Layer 1"
     inkscape:groupmode="layer"
     id="layer1"
     transform="translate(0.20744012,2.2267641)">
    <g
       transform="matrix(4.6379369,0,0,-4.6379369,-1130.3927,275.46422)"
       id="g4333">
      <g
         id="g4335"
         clip-path="url(#clipPath4337)">
        <g
           id="g4341"
           transform="translate(243.6831,46.165)">
          <path
             d="m 0,0 c -0.001,1.392 0.529,2.572 1.596,3.431 0.749,0.607 0.721,1.086 0.141,1.77 -2.216,2.59 -1.926,5.419 0.717,7.339 2.71,1.969 6.004,1.402 7.757,-1.337 0.192,-0.3 0.389,-0.601 0.535,-0.919 C 11.694,8.191 13.389,7.116 15.601,7 19.512,6.797 23.428,6.628 27.348,6.646 c 3.283,0.019 6.57,0.3 9.852,0.511 1.054,0.065 2.111,0.256 3.166,0.41 1.478,0.214 2.459,1.015 3.213,2.332 1.742,3.04 5.332,4.031 7.931,2.274 2.248,-1.52 3.666,-4.665 1.078,-7.31 C 52.02,4.277 51.649,3.767 52.434,2.975 54.946,0.456 55.036,-2.582 52.749,-4.629 50.26,-6.856 46.565,-6.604 44.385,-4.051 44.157,-3.779 43.889,-3.51 43.76,-3.19 42.616,-0.369 40.204,0.243 37.524,0.497 30.586,1.149 23.665,0.925 16.753,0.137 15.854,0.034 14.948,-0.097 14.041,-0.15 12.47,-0.246 11.355,-0.906 10.783,-2.446 9.363,-6.262 3.879,-6.555 1.445,-3.795 0.532,-2.759 -0.016,-1.405 0,0"
             style="fill:#ec008c;fill-opacity:1;fill-rule:evenodd;stroke:none"
             id="path4343"
             inkscape:connector-curvature="0" />
        </g>
      </g>
    </g>
  </g>
</svg>
